<svg id="Layer_1" data-name="Layer 1" xmlns="http://www.w3.org/2000/svg" xmlns:xlink="http://www.w3.org/1999/xlink" viewBox="0 0 729.24 252.44"><defs><style>.cls-1{fill:#fff;}.cls-2{fill:#3c3c3b;}.cls-3{fill:url(#linear-gradient);}.cls-4{fill:url(#linear-gradient-2);}.cls-5{fill:#010101;}</style><linearGradient id="linear-gradient" x1="127.81" y1="43.91" x2="127.81" y2="118.08" gradientUnits="userSpaceOnUse"><stop offset="0.04" stop-color="#3c61aa"/><stop offset="0.06" stop-color="#3878bb"/><stop offset="0.1" stop-color="#3590cc"/><stop offset="0.14" stop-color="#32a1d8"/><stop offset="0.18" stop-color="#31abe0"/><stop offset="0.23" stop-color="#30aee2"/><stop offset="0.37" stop-color="#3399d3"/><stop offset="0.61" stop-color="#387abc"/><stop offset="0.81" stop-color="#3b68af"/><stop offset="0.96" stop-color="#3c61aa"/></linearGradient><linearGradient id="linear-gradient-2" x1="127.81" y1="198.76" x2="127.81" y2="125.3" gradientUnits="userSpaceOnUse"><stop offset="0.09" stop-color="#e94b4d"/><stop offset="0.13" stop-color="#dc4344"/><stop offset="0.2" stop-color="#cc393a"/><stop offset="0.28" stop-color="#c33334"/><stop offset="0.4" stop-color="#c03132"/><stop offset="0.62" stop-color="#d6373b"/><stop offset="0.84" stop-color="#e83b42"/><stop offset="0.88" stop-color="#e33a41"/><stop offset="0.92" stop-color="#d6383d"/><stop offset="0.97" stop-color="#c03336"/><stop offset="1" stop-color="#a92f2f"/></linearGradient></defs><path class="cls-1" d="M77.68,118.45h5.48a10.55,10.55,0,0,0,9.89-6.87v0l12.53-33.66V59.38A11.63,11.63,0,0,0,94,47.76H49v.37a11.62,11.62,0,0,1,8.7,11.25v124.9A11.63,11.63,0,0,1,49,195.53v.37H94a11.63,11.63,0,0,0,11.63-11.62V165.82L93,132.09a10.49,10.49,0,0,0-9.85-6.88H77.68a3.38,3.38,0,0,1,0-6.76Z"/><path class="cls-2" d="M94,196.36H49a.46.46,0,0,1-.45-.46v-.37a.45.45,0,0,1,.34-.44,11.17,11.17,0,0,0,8.35-10.82V59.38a11.16,11.16,0,0,0-8.35-10.81.45.45,0,0,1-.34-.44v-.37A.45.45,0,0,1,49,47.3H94a12.1,12.1,0,0,1,12.09,12.08v18.5a.41.41,0,0,1,0,.16L93.49,111.7a11.07,11.07,0,0,1-10.33,7.2H77.68a2.93,2.93,0,0,0,0,5.86h5.48a11,11,0,0,1,10.27,7.18L106,165.66a.5.5,0,0,1,0,.16v18.45A12.1,12.1,0,0,1,94,196.36Zm-45-.83h0Zm1.68-.08H94a11.2,11.2,0,0,0,11.18-11.18V165.91L92.58,132.25a10.06,10.06,0,0,0-9.42-6.58H77.68a3.84,3.84,0,0,1,0-7.68h5.48a10.13,10.13,0,0,0,9.46-6.57L105.14,77.8V59.38A11.19,11.19,0,0,0,94,48.21H50.64a12.09,12.09,0,0,1,7.47,11.17V184.27A12.09,12.09,0,0,1,50.64,195.45Z"/><path class="cls-3" d="M125.44,47.76a12.42,12.42,0,0,0-11.64,8.08l-8.21,22L93.06,111.54v0a10.55,10.55,0,0,1-9.89,6.87h51.37a11.24,11.24,0,0,0,10.51-7.3l21.09-56.51a10.34,10.34,0,0,1,6.33-6.28v-.6Z"/><path class="cls-2" d="M134.53,118.9H83.16a.46.46,0,1,1,0-.91,10.13,10.13,0,0,0,9.46-6.57l20.76-55.74a12.92,12.92,0,0,1,12.06-8.38h47a.45.45,0,0,1,.46.46v.6a.46.46,0,0,1-.31.43,10,10,0,0,0-6.06,6l-21.08,56.52A11.73,11.73,0,0,1,134.53,118.9Zm-47-.91h47a10.8,10.8,0,0,0,10.08-7L165.7,54.48a10.8,10.8,0,0,1,5.89-6.27H125.44A12,12,0,0,0,114.23,56L93.49,111.7A11.07,11.07,0,0,1,87.52,118Z"/><path class="cls-4" d="M166.09,189,145.33,133.3a12.48,12.48,0,0,0-11.64-8.09H83.16A10.49,10.49,0,0,1,93,132.09l12.58,33.73,8.5,22.78a11.22,11.22,0,0,0,10.51,7.3h47.86v-.6A10.56,10.56,0,0,1,166.09,189Z"/><path class="cls-2" d="M172.46,196.36H124.6a11.72,11.72,0,0,1-10.93-7.6L92.58,132.25a10.06,10.06,0,0,0-9.42-6.58.47.47,0,0,1-.46-.46.46.46,0,0,1,.46-.45h50.53a12.94,12.94,0,0,1,12.07,8.38l20.75,55.74h0a10.09,10.09,0,0,0,6.11,6,.44.44,0,0,1,.3.43v.6A.46.46,0,0,1,172.46,196.36ZM87.51,125.67a10.91,10.91,0,0,1,5.92,6.27l21.09,56.5a10.81,10.81,0,0,0,10.08,7h47a11,11,0,0,1-5.94-6.26L144.9,133.46a12,12,0,0,0-11.21-7.79Z"/><path class="cls-5" d="M220,72.63V94.46h-5V76.74h-9.85V94.46h-5V72.63Z"/><path class="cls-5" d="M245.22,80.55c0,4.86-3.65,7.89-9.48,7.89h-4.4v6h-5.05V72.63h9.45C241.57,72.63,245.22,75.65,245.22,80.55Zm-5.12,0c0-2.4-1.56-3.81-4.64-3.81h-4.12v7.58h4.12C238.54,84.32,240.1,82.92,240.1,80.55Z"/><path class="cls-5" d="M249.61,72.63h5V86.85l10.42-14.22h4.74V94.46h-5V80.27L254.38,94.46h-4.77Z"/><path class="cls-5" d="M307.07,72.63V94.46h-5V76.74h-9.86V94.46h-5V72.63Z"/><path class="cls-5" d="M311.89,83.54c0-6.48,5.05-11.29,11.95-11.29S335.78,77,335.78,83.54s-5.08,11.29-11.94,11.29S311.89,90,311.89,83.54Zm18.78,0a6.83,6.83,0,1,0-6.83,7A6.66,6.66,0,0,0,330.67,83.54Z"/><path class="cls-5" d="M363,90.34V99h-4.67V94.46H342.92V99h-4.68l0-8.64h.87c2.84-.09,3.56-4.77,3.78-10.88l.25-6.83H360V90.34Zm-17.8,0H355V76.74h-7.49l-.09,3.19C347.19,84.57,346.69,88.57,345.2,90.34Z"/><path class="cls-5" d="M391,90.34V99h-4.68V94.46H370.88V99H366.2l0-8.64h.87c2.84-.09,3.55-4.77,3.77-10.88l.25-6.83h16.78V90.34Zm-17.81,0h9.76V76.74h-7.48l-.1,3.19C375.16,84.57,374.66,88.57,373.16,90.34Z"/><path class="cls-5" d="M412.31,90.4v4.06h-16.9V72.63h16.5v4.05H400.43v4.74h10.14v3.93H400.43V90.4Z"/><path class="cls-5" d="M436.44,80.55c0,4.86-3.65,7.89-9.48,7.89h-4.4v6h-5.05V72.63H427C432.79,72.63,436.44,75.65,436.44,80.55Zm-5.11,0c0-2.4-1.56-3.81-4.65-3.81h-4.12v7.58h4.12C429.77,84.32,431.33,82.92,431.33,80.55Z"/><path class="cls-5" d="M460.09,85.66h-3.18v8.8h-5v-8.8h-3.24l-4.9,8.8H438L444.53,83l-6.15-10.41h5.34l4.89,8.82H452V72.63h5v8.82h3.24l4.93-8.82h5.33L464.3,83l6.52,11.42H465Z"/><path class="cls-5" d="M483.49,85.66H480v8.8h-5V72.63h5v8.82h3.62l5.74-8.82h5.33l-7.14,10.54,7.36,11.29h-5.74Z"/><path class="cls-5" d="M515.92,90.4v4.06H499V72.63h16.5v4.05H504v4.74h10.14v3.93H504V90.4Z"/><path class="cls-5" d="M220,110.06V131.9h-5V114.18h-9.85V131.9h-5V110.06Z"/><path class="cls-5" d="M245.22,118c0,4.87-3.65,7.9-9.48,7.9h-4.4v6h-5.05V110.06h9.45C241.57,110.06,245.22,113.09,245.22,118Zm-5.12,0c0-2.4-1.56-3.8-4.64-3.8h-4.12v7.58h4.12C238.54,121.76,240.1,120.36,240.1,118Z"/><path class="cls-5" d="M266.51,127.84v4.06h-16.9V110.06h16.5v4.06H254.63v4.74h10.14v3.93H254.63v5Z"/><path class="cls-5" d="M288.6,125.78c0,4.12-4.49,6.49-9.73,6.49a17.67,17.67,0,0,1-8.71-2.28l1.56-3.62a12.93,12.93,0,0,0,6.55,1.78c2.87,0,5.21-1.06,5.21-3.09,0-1.65-1.49-2.46-3.77-2.46h-5.33v-3.8h4.95c2.06,0,3.25-.91,3.25-2.34,0-1.78-1.94-2.72-4.4-2.72a12.23,12.23,0,0,0-5.86,1.56l-1.53-3.93a16.58,16.58,0,0,1,7.48-1.78c5.06,0,9.42,2.31,9.42,6.27a5,5,0,0,1-3.15,4.65A5.51,5.51,0,0,1,288.6,125.78Z"/><path class="cls-5" d="M293.58,110.06h5v14.22L309,110.06h4.75V131.9h-5V117.7l-10.41,14.2h-4.77Z"/><path class="cls-5" d="M342.7,127.78v8.64H338V131.9H322.61v4.52h-4.68l0-8.64h.87c2.84-.1,3.55-4.77,3.77-10.89l.25-6.83h16.78v17.72Zm-17.81,0h9.76v-13.6h-7.48l-.1,3.18C326.89,122,326.39,126,324.89,127.78Z"/><path class="cls-5" d="M364,127.84v4.06h-16.9V110.06h16.5v4.06H352.16v4.74H362.3v3.93H352.16v5Z"/><path class="cls-5" d="M389.26,110.06V131.9h-5.05v-9h-9.92v9h-5.05V110.06h5.05v8.61h9.92v-8.61Z"/><path class="cls-5" d="M412.39,114.18h-7V131.9h-5V114.18h-7v-4.12h18.93Z"/><path class="cls-5" d="M414.83,121c0-6.58,5.05-11.29,11.85-11.29a11.26,11.26,0,0,1,9,3.87l-3.24,3a7.05,7.05,0,0,0-5.49-2.56,7,7,0,0,0,0,14,7,7,0,0,0,5.49-2.59l3.24,3a11.21,11.21,0,0,1-9,3.9C419.88,132.27,414.83,127.56,414.83,121Z"/><path class="cls-5" d="M448.39,123.1h-3.5v8.8h-5V110.06h5v8.83h3.62l5.74-8.83h5.33l-7.14,10.54,7.36,11.3h-5.74Z"/><path class="cls-5" d="M461.35,121c0-6.49,5-11.29,11.94-11.29s11.95,4.77,11.95,11.29-5.09,11.29-11.95,11.29S461.35,127.47,461.35,121Zm18.77,0a6.83,6.83,0,1,0-6.83,7A6.66,6.66,0,0,0,480.12,121Z"/><path class="cls-5" d="M505.44,114.18H495.05l0,17.72h-5V110.06h15.41Z"/><path class="cls-5" d="M507.82,121c0-6.49,5.05-11.29,11.94-11.29s12,4.77,12,11.29-5.09,11.29-12,11.29S507.82,127.47,507.82,121Zm18.77,0a6.83,6.83,0,1,0-6.83,7A6.66,6.66,0,0,0,526.59,121Z"/><path class="cls-5" d="M562,130.49v2.37h-4.65v-2.4c-7.39-.44-11.44-3.84-11.44-9.54s4.05-9.11,11.44-9.55v-2.24H562v2.21c7.36.44,11.42,3.87,11.42,9.58S569.39,130.12,562,130.49Zm-4.65-4v-11.2c-4.43.41-6.55,2.19-6.55,5.59S553.14,126.09,557.35,126.53Zm11.2-5.64c0-3.37-2.21-5.18-6.55-5.56v11.2C566.4,126.13,568.55,124.28,568.55,120.89Z"/><path class="cls-5" d="M577.16,121c0-6.49,5.05-11.29,11.94-11.29s11.95,4.77,11.95,11.29S596,132.27,589.1,132.27,577.16,127.47,577.16,121Zm18.77,0a6.83,6.83,0,1,0-6.83,7A6.66,6.66,0,0,0,595.93,121Z"/><path class="cls-5" d="M625.9,110.06V131.9h-5v-9h-9.92v9h-5.06V110.06h5.06v8.61h9.92v-8.61Z"/><path class="cls-5" d="M654.86,127.78v8.64h-4.68V131.9H634.77v4.52h-4.68l0-8.64H631c2.83-.1,3.55-4.77,3.77-10.89l.25-6.83H651.8v17.72Zm-17.81,0h9.76v-13.6h-7.49l-.09,3.18C639,122,638.54,126,637.05,127.78Z"/><path class="cls-5" d="M675.2,127.22H665.06l-1.93,4.68H658l9.73-21.84h5l9.76,21.84h-5.3Zm-1.59-3.84L670.14,115l-3.46,8.36Z"/><path class="cls-5" d="M208.57,160.53h-3.49v8.8h-5V147.5h5v8.82h3.61l5.74-8.82h5.34L212.62,158,220,169.33h-5.73Z"/><path class="cls-5" d="M245,147.5l-9.3,17.28c-1.81,3.37-4.4,5.05-7.33,5.05a9.28,9.28,0,0,1-3.55-.75l1.21-3.84a7.6,7.6,0,0,0,2.19.41,3.45,3.45,0,0,0,3-1.87l.19-.25-8.61-16h5.4l5.8,11.73,6-11.73Z"/><path class="cls-5" d="M267.06,147.5v21.83h-5V151.61h-7.48l-.16,4.56c-.28,8.58-1.49,13.5-6.61,13.5a10.87,10.87,0,0,1-2.49-.34l.31-4.27a3.1,3.1,0,0,0,.9.12c2.56,0,3.22-3.24,3.43-8.82l.32-8.86Z"/><path class="cls-5" d="M292.19,161.72c0,5-3.37,7.61-9,7.61h-9.86V147.5h5v7.17h5.56C289.2,154.67,292.19,157,292.19,161.72Zm-5.08.09c0-2.4-1.56-3.4-4.18-3.4h-4.56v7.18h4.56C285.52,165.59,287.11,164.28,287.11,161.81Z"/><path class="cls-5" d="M311.56,151.61h-7v17.72h-5V151.61h-7V147.5h18.93Z"/><path class="cls-5" d="M336.69,147.5l-9.29,17.28c-1.81,3.37-4.4,5.05-7.33,5.05a9.37,9.37,0,0,1-3.56-.75l1.22-3.84a7.59,7.59,0,0,0,2.18.41,3.46,3.46,0,0,0,3.06-1.87l.19-.25-8.61-16H320l5.8,11.73,6-11.73Z"/><path class="cls-5" d="M359.65,155.42c0,4.87-3.64,7.89-9.48,7.89h-4.39v6h-5.06V147.5h9.45C356,147.5,359.65,150.52,359.65,155.42Zm-5.11,0c0-2.4-1.56-3.81-4.65-3.81h-4.11v7.58h4.11C353,159.19,354.54,157.79,354.54,155.42Z"/><path class="cls-5" d="M384.07,147.5v21.83H379v-9H369.1v9h-5.05V147.5h5.05v8.61H379V147.5Z"/><path class="cls-5" d="M409.19,161.72c0,5-3.37,7.61-9,7.61h-9.86V147.5h5v7.17h5.55C406.2,154.67,409.19,157,409.19,161.72Zm-5.08.09c0-2.4-1.56-3.4-4.18-3.4h-4.55v7.18h4.55C402.52,165.59,404.11,164.28,404.11,161.81ZM412,147.5h5v21.83h-5Z"/><path class="cls-5" d="M427.44,147.5l4.53,6.61,4.52-6.61h5.92L435.15,158,443,169.33h-6L432,162.09l-5,7.24h-5.83l7.8-11.17-7.3-10.66Z"/><path class="cls-5" d="M458,147.5h5v14.22l10.41-14.22h4.74v21.83h-5V155.14l-10.41,14.19H458Z"/><path class="cls-5" d="M504.46,147.5v21.83h-5v-9h-9.92v9h-5.05V147.5h5.05v8.61h9.92V147.5Z"/><path class="cls-5" d="M510.75,147.5h5v14.22l10.41-14.22h4.75v21.83h-5V155.14l-10.41,14.19h-4.77Z"/><path class="cls-5" d="M560.09,165.21V174h-4.65v-4.62H537.2V147.5h5v17.71H552V147.5h5v17.71Z"/><path class="cls-5" d="M564.5,147.5h5v14.22l10.42-14.22h4.74v21.83h-5V155.14l-10.42,14.19H564.5Z"/><path class="cls-5" d="M606,164.65H595.87l-1.94,4.68h-5.17l9.73-21.83h5l9.76,21.83h-5.3Zm-1.59-3.83L601,152.46l-3.46,8.36Z"/><path class="cls-5" d="M631.52,151.61h-7v17.72h-5V151.61h-6.95V147.5h18.93Z"/><path class="cls-5" d="M635.68,147.5h5v14.22l10.42-14.22h4.74v21.83h-5V155.14l-10.42,14.19h-4.77Z"/><path class="cls-5" d="M681.38,163.19c0,3.8-3,6.14-8.49,6.14H662.13V147.5H672.3c5.05,0,8.05,2,8.05,5.64a5.14,5.14,0,0,1-3.09,4.81A5.17,5.17,0,0,1,681.38,163.19Zm-14.23-6.65h4.71c2.19,0,3.34-.9,3.34-2.65s-1.15-2.65-3.34-2.65h-4.71Zm9.11,6.24c0-1.84-1.21-2.71-3.55-2.71h-5.56v5.52h5.56C675.05,165.59,676.26,164.68,676.26,162.78Z"/></svg>