<svg id="Слой_1" data-name="Слой 1" xmlns="http://www.w3.org/2000/svg" viewBox="0 0 522.21 539.71"><title>Лого РУ</title><path d="M284,481a71.31,71.31,0,0,0-.06-7.37,17.9,17.9,0,0,0-1.45-4.9c-1.29-3-.3-7.53,2.43-9.34a6.32,6.32,0,0,1,6.14-.28,5.17,5.17,0,0,1,.76.49c4.07,2.67,4.7,2.45,6-2.07.73-2.68,2-3.19,4.1-1.32,2.82,2.55,4.64,5.85,6.34,9.23a17.71,17.71,0,0,0,2.74,3.92,2.19,2.19,0,0,0,2.13.3c.5-.32.62-1.35.76-2.09a1.91,1.91,0,0,0-.35-1.15c-2-3.57-2.15-7.58-2.74-11.48-.18-1.24-.22-2.52,1-3.27s2.44-.13,3.56.77c2.38,1.88,3.27,1.44,4.34-1.41,1.25-3.31,3-6.43,4.11-9.77,1.26-3.74,2.07-7.63,3-11.46a3.78,3.78,0,0,0,.06-1.21c-.19-2.68-5.11-8.13-7.75-8.61-.81-.14-1.62-.21-2.41-.38-3.63-.78-4.75-4.3-2.3-7.09,1.26-1.44,2.59-2.57,4.69-2.27a3.51,3.51,0,0,0,1.49-.22c1.86-.58,2.43-1.88,1.41-3.51-1.61-2.57-3.23-5.15-5.05-7.58a14.28,14.28,0,0,0-3.4-3,78.7,78.7,0,0,0-6.7-4.17c-4-2.19-8-4.4-12.18-6.27a14.19,14.19,0,0,0-9-.51,3.47,3.47,0,0,0-1.64.74c-2.34,2.27-5.51,3-8.26,4.46a34.43,34.43,0,0,0-4.3,2.8,18.28,18.28,0,0,0-2.62,2.51,26.85,26.85,0,0,0-2.39,3.12c-.93,1.43-1.66,3-2.63,4.4a7.88,7.88,0,0,0,.71,10.27c.34.36.82.76.89,1.19a24.57,24.57,0,0,0,3,8.21c1.22,2.17.4,3.25-2.08,3.81s-3,.93-3.28,3.61c-.38,3.53-.59,7.09-1,10.62-.27,2.6-1.15,3.16-3.66,2.38a13.14,13.14,0,0,1-2.44-1.2c-2.13-1.21-3.09-1.1-4.79.73-.48.51-.83,1.14-1.27,1.7-.86,1.1-1.73,2.2-2.61,3.28-.51.63-1.27,1.16-1.52,1.87-.73,2.09-2.28,2.7-4.27,2.74s-3,1.13-3.77,2.94A14.52,14.52,0,0,1,235,459a2.08,2.08,0,0,1-3,.24c-1.81-1.41-3.6-1.07-5.38,0a9.39,9.39,0,0,1-5.2,1.48c-2.78-.05-3.8-.92-4.23-3.73-.07-.4-.08-.81-.12-1.22-.29-3.64-.53-3.91-4-4.43a33.94,33.94,0,0,1-3.61-.59c-3.46-.91-4.33-3-2.64-6.18a33.18,33.18,0,0,0,1.7-3.56,5.3,5.3,0,0,0-.41-5.23,6.49,6.49,0,0,1-.71-6.37,6.5,6.5,0,0,0-.13-3.82,13.47,13.47,0,0,1-.52-7.18c.54-2.1-.33-3.3-2.44-3.78-1-.23-2-.12-3-.28a21.67,21.67,0,0,1-4.72-1,12.71,12.71,0,0,0-6.57-.69,48.27,48.27,0,0,1-6.37.23,4.21,4.21,0,0,1-3.91-2.45,9.87,9.87,0,0,0-7.38-5.29c-3.6-.7-4.56-2.94-2.95-6.29.44-.91.87-1.84,1.36-2.73a5.41,5.41,0,0,0,.26-4.67,17.49,17.49,0,0,1-.7-5.07,4.12,4.12,0,0,1,2-3.87c1.83-1.1,2.28-2.59,1.67-4.68a5.43,5.43,0,0,1,2.35-6.62,12.15,12.15,0,0,0,3.32-3.49c1.3-2,.91-3.21-1-4.62a21.68,21.68,0,0,0-2.3-1.51,7.68,7.68,0,0,1-3.37-4.1,14,14,0,0,0-3.53-4.43,8.34,8.34,0,0,1-2.6-3.65,10,10,0,0,0-5.61-6.46,9.23,9.23,0,0,1-5.54-7c-.7-3.13-2.86-5.92-3.29-9.3-.07-.57-.86-1.09-1.4-1.53-2.81-2.3-3.38-5.46-3.34-8.8,0-1.82.92-2.5,2.82-2.22,1.61.23,3.17.74,4.77,1,2.87.56,3.47.17,4.75-2.42a11,11,0,0,1,1.92-2.67,2.58,2.58,0,0,1,3.33-.41c3.14,1.58,3.44,1.44,5.48-1.26a26,26,0,0,1,2.43-2.71c1-.92,1.64-.78,2.44.42a21.23,21.23,0,0,0,2,3c2.2,2.3,4.71,1.95,6-.89.67-1.46,1.55-2.05,3.07-1.81,1.09.17,2.18.47,3.29.54s2.56.35,3.54-.12c2.16-1,4-.32,5.82.55.54.26,1,.69,1.54,1,1.56.86,2.56.72,3.27-.81a11,11,0,0,1,3-4.11c.75-.63.88-2.18,1-3.34.45-3.73.76-7.48,1.18-11.21a9,9,0,0,1,.64-2.34c.85-2,2.22-3.41,4.63-3.23a4.41,4.41,0,0,0,4.51-2.39c1.56-2.52,3.36-2.59,5.62-.54,1.27,1.16,2.58,1.55,4.14.62a6.92,6.92,0,0,1,1.4-.59c2.88-1,3.41-.76,4.56,2.08a4.94,4.94,0,0,0,3.46,3.14c1,.26,2,.47,3,.64A4.89,4.89,0,0,1,245,289c1.51,3.08,4.12,4.35,7.39,4.51,2.53.12,5,0,7.33,1.56a2.9,2.9,0,0,0,2.8-.31c3.47-3.61,8.41-4.9,12.19-8a38.9,38.9,0,0,1,3.69-2.67,2.93,2.93,0,0,1,3.64.32c2.9,2.16,3.66,1.95,6.77,0a42.76,42.76,0,0,1,7.85-3.88,8.66,8.66,0,0,1,4.47.19c2.86.63,5.64,1.59,8.49,2.26,3.65.87,3.93,1.06,4.15,4.81a27.74,27.74,0,0,1-.22,3.63c-.17,2.07.17,2.66,2.12,3.51.84.36,1.73.62,2.55,1,2.36,1.12,3.24,2.8,1.78,4.88-2.38,3.4-2.21,6.11.41,9.29a4.82,4.82,0,0,1-.3,6.23,7.36,7.36,0,0,0-1.79,4.41,5.32,5.32,0,0,1-3.51,4.89,6.66,6.66,0,0,0-2.86,2.14c-2.72,4-6.7,6.14-10.86,8.1-1.19.56-2.43,1.05-3.66,1.51a11.55,11.55,0,0,0-3.83,2.87c-6.5,6.15-5.67,14.17-5.76,21.92,0,2.29,1.3,4.22,2.78,6a12.76,12.76,0,0,1,2.28,3.2c1.51,3.73,4.43,5.88,7.75,7.83a61.57,61.57,0,0,1,7.14,5.12c2.29,1.84,4.33,4,7.12,5.16a8.34,8.34,0,0,1,2.44,1.8c3.07,3,6.09,6,9.13,9,.72.71,1.38,1.49,2.13,2.18,2.26,2.11,4.12,1.77,4.89-1.28a111.62,111.62,0,0,0,1.89-11.09c1.08-7.41,1.05-15,3-22.29.82-3,1-6.21,1.6-9.3a5.25,5.25,0,0,1,1.35-2.95,6.25,6.25,0,0,0,2.22-4.83c.21-6.3.34-12.6.35-18.9a3.32,3.32,0,0,0-1.3-2.52c-1.71-.89-1.95-2.25-1.81-3.82.47-5.44-.68-10.74-1.36-16.07a19.36,19.36,0,0,0-2-6.31,80.68,80.68,0,0,1-3.6-9.68c-1.52-4.31-3.13-8.59-4.44-12.95-2.19-7.33-6.18-13.7-10.55-19.81-3.14-4.4-7.32-7.27-13.24-6.46a46.31,46.31,0,0,1-5.77,0c-2,0-4.05.12-6.08.2-1.85.06-2.71,1.12-2.94,2.87s-.51,3.62-.79,5.43a11.67,11.67,0,0,1-.47,2.38c-.92,2.37-2.86,3.29-5.13,2.16a14.61,14.61,0,0,1-3.71-3c-1.69-1.73-2.51-2-4.42-.56a17.4,17.4,0,0,0-2.87,3.06c-.63.78-1,1.74-1.65,2.55-2.77,3.67-6,5.7-11.08,5.55a25.17,25.17,0,0,1-12.4-3.44,7.21,7.21,0,0,1-2.07-2.15c-2.66-3.78-4.49-4.5-8.81-3.29-5,1.4-6.09.38-5.19-4.83.19-1.1.42-2.2.55-3.31.34-2.91-.65-4.69-3.44-5.68A22.28,22.28,0,0,0,224,251c-5.31-.52-11.63-6.69-12.4-12.05-1.24-8.52-.48-16.84,3.33-24.7a29.54,29.54,0,0,1,2-3c1.9-2.9,3.09-5.9,1.85-9.48a11.42,11.42,0,0,1-.45-4.21c.13-2.75.82-3.5,3.55-4a4.56,4.56,0,0,0,3.84-3.44,12.53,12.53,0,0,0,.48-2.08,26.48,26.48,0,0,1,9.11-16.77,61.19,61.19,0,0,1,6.19-4.94c4-2.74,8.5-2.45,12.94-1.46a26.73,26.73,0,0,1,5.34,2.2,22.72,22.72,0,0,1,7.81,6.17c3.42,4.06,5,3.8,7.57-.86a19.2,19.2,0,0,1,1.23-2.1,3.72,3.72,0,0,1,4.32-1.41c1.76.45,2.33,1.16,2.51,3.32.1,1.22,0,2.44.09,3.66.13,1.86,1,2.56,2.82,2.12a12.76,12.76,0,0,0,2.52-1,21.61,21.61,0,0,1,16.93-1,10.78,10.78,0,0,1,7.51,8.52c1,5.69,2.19,11.37,1.31,17.25-.38,2.5.45,3.11,2.93,2.8,1-.13,2-.43,3-.46,1.84,0,2.64.7,2.65,2.56a7.35,7.35,0,0,1-2.91,6.09,16,16,0,0,1-2.6,1.58c-2.55,1.28-3.36,3.43-3,6.09a13.72,13.72,0,0,0,.91,3.84c2,4.23,1.61,8.75,1.81,13.19.05,1.05-.62,2.12-.91,3.19a18.52,18.52,0,0,0-.83,3.52c-.15,2.29.37,3.23,2.57,3.89a11.59,11.59,0,0,1,5.34,3.87,49,49,0,0,1,8.82,14.44c.37.94.92,1.8,1.37,2.71a15.47,15.47,0,0,1,1.4,3,28.23,28.23,0,0,0,2.58,6.45,23.75,23.75,0,0,1,2,7c.44,2.59,1.61,4.3,4.15,5.08s3.9.2,4.38-2.51c.38-2.09.49-4.24.74-6.35a11.49,11.49,0,0,1,.48-2.7c1.65-4.25,3.24-8.54,5.15-12.69a9.77,9.77,0,0,0,1-5.87c-1.06-6.22-2.13-12.43-3.29-18.62a9.87,9.87,0,0,0-1.38-3.36,19.07,19.07,0,0,1-2.65-8.68,14.48,14.48,0,0,1,.86-5.93c1.1-3,3.83-3.49,6.33-1.44a9.75,9.75,0,0,0,.92.8,2.73,2.73,0,0,0,4.35-2.24,11.79,11.79,0,0,0-.08-2.14c-.35-2.9.87-5.36,2.18-7.79a2,2,0,0,1,2.53-1.06c3.91.78,4.85,0,5.66-3.77.52-2.48,1.3-4.9,2-7.34a2.76,2.76,0,0,1,2.88-2.26c2.77.15,4.33-1.3,5.4-3.62.67-1.48,1.38-2.95,2.16-4.38,1-1.8,2.29-2.13,4-1,.69.43,1.25,1.07,1.93,1.5,2,1.29,3.7.78,4.7-1.38a8.22,8.22,0,0,0,.51-1.44,3.17,3.17,0,0,1,3.39-2.48c1.22,0,2.45-.11,3.66,0a10.07,10.07,0,0,0,9-4.18,11.67,11.67,0,0,1,2.1-2.17c1.05-.79,2.2-1.63,3.63-.89a3,3,0,0,1,1.39,3.43c-.47,2.38-1.19,4.7-1.84,7a4.83,4.83,0,0,1-.56,1.08,4,4,0,0,0,.67,5.3c2.52,2.36,2.62,5.1,1.6,8.12a27.2,27.2,0,0,0-.7,2.65,5.7,5.7,0,0,0,1.32,5.38c1.37,1.57,1.33,3.18.17,5-2.07,3.25-3.9,6.6-6.59,9.46-1.7,1.79-1.59,4.29-.77,6.65,1.33,3.83.35,5.6-3.6,6.61a5.47,5.47,0,0,0-4.08,5.09,16,16,0,0,0,.71,4.44c.25,1.07.84,2.08,1.06,3.16.5,2.47-.21,4-2.65,4.22-3.54.37-6.55,2.1-9.87,3a46.75,46.75,0,0,1-6.89,1c-2.33.23-4.69.08-7,.41a14.41,14.41,0,0,0-7.47,3.24,3.5,3.5,0,0,1-.73.55c-3.15,1.56-5.4,4.18-7.93,6.51-3.92,3.62-5.89,8.17-7,13.21-.38,1.68-.79,3.36-1,5.07-.34,2.19.29,3.06,2.49,3.27,1.71.17,3.45,0,5.18.12,2.06.11,2.35.55,2.47,2.63.13,2.44-1.35,3.93-2.86,5.47-3.05,3.12-6.16,6.18-9.06,9.42a8.29,8.29,0,0,0-1.68,3.81,26.18,26.18,0,0,0-.23,5.17c.14,8.74.44,17.48.42,26.22,0,4.56-.57,9.12-.88,13.69a3.8,3.8,0,0,1-.18.89c-3.25,8.93-2.87,18.43-4.45,27.62-.54,3.21-.87,6.45-1.37,9.66-.24,1.53-.69,3-2.24,3.78-1.33.7-1.58,2.05-1.77,3.37-.29,2-.51,4-.8,6.05a15.61,15.61,0,0,1-.64,3.28c-3.25,8.61-3.52,17.92-6.28,26.64a12,12,0,0,0-.39,4.23,2.86,2.86,0,0,0,1.17,2.18,3,3,0,0,0,2.44-.65c1.52-1.32,2.85-2.89,4.27-4.34.49-.5,1-1.25,1.56-1.39,2.37-.56,3.73-2.35,5.23-4a61.05,61.05,0,0,1,14.2-11.34,29.06,29.06,0,0,0,8.66-8.45c2.39-3.28,5-6.41,7.63-9.5,3.16-3.7,6.45-7.29,9.7-10.91a68.31,68.31,0,0,0,4.65-5.16c2.82-3.87,2.85-8.11,1.07-12.44-.81-2-1.68-3.91-2.42-5.91-1.11-3-6.07-6.66-9.43-6.87-1.62-.11-3.25-.06-4.88-.16s-3-.32-3.62,1.78c-.2.63-1.64,1.19-2.54,1.24a31.54,31.54,0,0,1-6.37-.21c-4.18-.62-6-4.11-3.6-7.51,2.1-2.91,1.12-5.32.67-8.27-.81-5.37-2.28-10.74-1.65-16.25a22.22,22.22,0,0,0-.5-8.44c-1.22-4.61-.34-9.12,1.34-13.44,1.13-2.88,3.52-3.69,6.46-3a55.48,55.48,0,0,0,6.57.89c1,.11,2,0,3,.14,3.15.43,5.62-.39,7.13-3.4.54-1.1,1.23-2.12,2.66-2.23,1.69-.14,3.15,0,4.25,1.67a14.12,14.12,0,0,0,3.17,3.24c1.46,1.11,2.5.88,3.71-.46.07-.07.1-.19.18-.25,2.7-2,3.8-4.37,2.63-7.8-.58-1.71.13-3.55,1-5.26a51.83,51.83,0,0,0,3-6.93,8.37,8.37,0,0,1,5.86-5.34,12.8,12.8,0,0,0,6.23-3.52,10.87,10.87,0,0,1,2-1.42c1.83-1.23,2.9-1,3.82,1a15,15,0,0,1,.92,3.52c.19,1,.16,2,.34,3,.73,4.08,2.45,5.09,6.47,3.82.77-.25,1.49-.64,2.25-.93,2.11-.8,3.37-.17,3.74,2,.28,1.7.25,3.45.51,5.15.51,3.23,1.68,4.22,4.79,5.12,4.84,1.4,9.2.92,13.05-2.58a3.05,3.05,0,0,1,1.94-.63,11.13,11.13,0,0,0,7.95-3.23,5.17,5.17,0,0,1,5.7-.88,12.21,12.21,0,0,0,6.28.43,16,16,0,0,1,4.83.06c3.81.59,5.05,4.2,2.43,7.67a8,8,0,0,1-1.15,1c-1.76,1.64-2,3.09-.67,5.1a11.85,11.85,0,0,0,1.35,1.65c1.95,2.14,2.12,4.3-.24,5.9-2.75,1.86-2.93,4.12-2.32,6.89.18.79.24,1.61.42,2.4.39,1.69,0,3.06-1.63,3.82s-2.29,2.16-2.66,3.83c-.5,2.28-1.1,4.53-1.71,6.79-.65,2.42,0,3.46,2.41,3.83.8.12,1.62.14,2.43.18a5.06,5.06,0,0,1,4.54,2.49,13.71,13.71,0,0,0,4,3.64,4.57,4.57,0,0,1,2.16,3.78,4.61,4.61,0,0,0,3.07,4.47,10.57,10.57,0,0,1,2.41,1.81,4.2,4.2,0,0,1-1.56,7.42c-3.16.89-5.85,2.78-6.94,6.27-.53,1.72-1.91,2.5-3.69,2.75a61,61,0,0,0-6.59,1.19c-2.73.7-3.35,2.31-2,4.82,1.06,2,2.2,3.88,3.37,5.78s1.37,3.53-.2,5.28a12.48,12.48,0,0,0-3.07,8.06,17.52,17.52,0,0,1-1.15,4.68,43.14,43.14,0,0,1-2,4.45,6.81,6.81,0,0,0,0,5.56,22.79,22.79,0,0,1,.71,6.26c0,1.09-.73,1.63-1.86,1.42-.9-.17-1.79-.43-2.69-.55a22.78,22.78,0,0,0-3.93-.35c-3.62.17-4.57,1.21-4.77,4.88-.1,1.73-.15,3.46-.41,5.17-.43,2.89-1.38,3.77-4.21,3.7-4.26-.09-8.52-.39-12.79-.56-2.12-.09-4.25-.19-6.37-.14-2.59.07-3.24-.38-3.62-3s-.89-5-1-7.54a29.85,29.85,0,0,1,.44-5.73c.26-1.91.81-3.78,1-5.69a10,10,0,0,0-1.74-7.5c-1.6-2.2-2.67-4.76-4.08-7.09a22.8,22.8,0,0,0-2.44-3.12,5.27,5.27,0,0,0-4.95-1.71c-2.91.35-5.85.52-8.78.76-4.2.34-7.89,1.52-10.46,5.25a19.77,19.77,0,0,1-3.8,3.48c-5.31,4.42-10.57,8.9-16,13.19-4.05,3.2-8.32,6.14-12.49,9.2a.92.92,0,0,0-.25.17c-4,4.8-9.83,7.56-14,12.13-2.4,2.66-5.17,4.81-7.68,7.3a5,5,0,0,1-1.68,1.29c-6,2.19-9.4,7.21-13.05,11.94a2.86,2.86,0,0,0-.3,2.43c.18.43,1.52.77,2.12.55a14.64,14.64,0,0,0,4.48-2.35,7.3,7.3,0,0,1,4.35-1.9,2.28,2.28,0,0,1,2.76,1.8c.45,1.74.07,3.67-1.21,4a17,17,0,0,0-5.73,3.3,5.59,5.59,0,0,1-2.22,1c-1.37.27-2.53.62-3,2.18-.11.41-.67.72-1.06,1a3.68,3.68,0,0,0-1.29,4.2,2.07,2.07,0,0,0,3,1.26,51.67,51.67,0,0,0,5.2-2.5c.63-.32,1.15-1.06,1.78-1.14,3.89-.46,6.7-3.27,10.18-4.59a3.15,3.15,0,0,0,.83-.38c3.3-2.63,7.12-2,10.84-1.61,2.58.25,3.34,1.31,3.33,3.83s-.62,3.31-3.12,3.66c-2.81.39-5.67.45-8.5.77a10.81,10.81,0,0,0-3.14.88c-2.22,1-4.37,2.09-6.56,3.11-.64.3-1.39.37-2,.73a2.33,2.33,0,0,0-1.27,2.82c.32.81,1.27,1.84,2,1.91a18,18,0,0,0,5.71-.32c5.45-1.28,10.92-.56,16.39-.42a2,2,0,0,1,2.07,1.86c.08,1.46-1,1.9-2.2,2-2.93.3-5.86.64-8.8.76a14.19,14.19,0,0,0-8.07,2.31,8,8,0,0,1-3.39,1.2c-2.21.32-4.45.48-6.68.58a13.21,13.21,0,0,0-6.15,1.5,6,6,0,0,1-6.36-.2c-3.58-2-5.51-1.83-8.56.75-1.23,1-2.29,1.27-3.41,0-1.4-1.56-2.81-1.39-4.64-.58-4.29,1.89-8.63,1.79-12.26-1.43-2.4-2.14-4.82-2.71-8-2.64-5.06.11-10.13-.58-15.2-1a2.24,2.24,0,0,1-2.25-2.4,23,23,0,0,1,.31-4.55c.6-3.12,3.68-4.54,5.9-2.35C278.73,481.87,281.18,481.05,284,481ZM266,195.9a32.41,32.41,0,0,0-5.42-18.32c-2.14-3.17-6.92-5.48-10.46-4.65-4.62,1.08-9,2.62-11.83,6.77a5.43,5.43,0,0,1-.81.91c-3.48,3.23-3.56,7.1-2.07,11.21.51,1.43,1.47,2.7,1.93,4.14.81,2.57,2.7,4,4.93,5.1,3.19,1.55,6.49,2.89,9.7,4.4C258.35,208.47,267.06,204.13,266,195.9ZM238.8,212.21v.18c-2.14,0-4.27.05-6.4,0-3.47-.09-5.94,1.5-8,4.19-2.73,3.55-4,7.76-5.45,11.84-.52,1.47,0,3.38.27,5a20.4,20.4,0,0,0,1.4,4c1.88,4.64,7.77,7.48,12.36,5.78a16.31,16.31,0,0,0,5.23-3c3.14-2.86,6-6.06,9-9a11.35,11.35,0,0,0,3.41-7.61,45.27,45.27,0,0,0,0-6.69c-.23-3.36-1.77-4.68-5.11-4.68Zm46.8,1.55a30,30,0,0,0,12.36-3c5.71-2.85,9-8.15,8.37-14.53a59.77,59.77,0,0,0-1.41-8.09,5.6,5.6,0,0,0-1.91-3,9.2,9.2,0,0,0-6.86-2c-4.61.68-9,1.58-12.84,4.87-6.82,5.8-8.36,13.06-7.41,21.36a3.48,3.48,0,0,0,3.11,3.26C281.2,213.08,283.4,213.41,285.6,213.76ZM309.07,235h0c0-.61,0-1.22,0-1.83-.4-6.5-2.49-9.23-8.61-11.28a12.25,12.25,0,0,1-1.42-.55,11.31,11.31,0,0,0-7.16-.81c-3.87.79-7.68,1.84-11.5,2.84a4.34,4.34,0,0,0-3.12,2.69c-1.26,3.32-1.4,6.56,1,9.5,1.65,2.05,3.36,4.06,5.08,6.06a20.86,20.86,0,0,0,8.61,6.09c6.49,2.46,17.46-.62,17.17-10.88C309.06,236.2,309.07,235.59,309.07,235Zm-38.5,18.73c-.28-3.13-.6-6.67-.93-10.2a9.56,9.56,0,0,0-.17-1.51c-1.48-5.68-4.2-9.14-10-8.28a4,4,0,0,0-3.55,2.4,11.05,11.05,0,0,1-2.23,2.82c-4.8,5.13-8,15.17-2.76,23.05a8.7,8.7,0,0,0,4,3.57c1.51.59,3,1.2,4.57,1.66a7.89,7.89,0,0,0,8.81-3.17C270.54,261,270.44,257.56,270.57,253.71ZM235.16,371.43c0-2.35-1.64-3.46-3.66-2.2-2.47,1.56-5.08,1.81-7.85,2a19.46,19.46,0,0,0-6,1c-3.73,1.48-7.91,2.06-11,5-.27.27-.75.3-1.09.52-1.63,1-3.27,2-4.84,3.07-1.9,1.32-3.73,2.74-5.6,4.12-.33.24-.79.37-1,.69s-.78,1.2-.61,1.55c.26.52,1.07,1.19,1.53,1.12a12.68,12.68,0,0,0,3.31-1.21c1.26-.6,2.45-1.34,3.67-2a15.64,15.64,0,0,0,2.63-1.48,19,19,0,0,1,10.89-5,16.18,16.18,0,0,0,3.56-.78,7,7,0,0,0,2.69-1.31c1.75-1.7,3.87-2.11,6.14-2.22,1.62-.09,3.26-.05,4.87-.25A2.29,2.29,0,0,0,235.16,371.43Zm34.74-36.38a24.28,24.28,0,0,0,.85,4.12c.47,1.25,1.92,1.21,2.61.05a3.15,3.15,0,0,0,.47-1.43c.08-2.6,1.2-4.88,2-7.29a59,59,0,0,1,8.81-17.59,4.87,4.87,0,0,0,.93-1.57,7.89,7.89,0,0,0,.06-1.95c-.66,0-1.56-.29-2,0-1.38,1.16-2.61,2.51-3.88,3.81s-2.71,2.72-3.93,4.18a12,12,0,0,0-2.05,3.24c-.74,1.88-.95,4-1.83,5.79A24.49,24.49,0,0,0,269.9,335.05Zm137.86,26.54-.2,0c-.14-2.84-.17-5.69-.44-8.51a13.33,13.33,0,0,0-4.54-8.39,2.77,2.77,0,0,0-3.63-.26c-1.2.9-1.16,2-.51,3.24a52.89,52.89,0,0,0,3,5.6,9.15,9.15,0,0,1,1.78,4.76c.12,1.92.18,3.85.22,5.78.08,2.94,0,5.89.24,8.82,0,.76.66,2,1.23,2.1,1.29.33,1.54-1,1.84-1.92a6.86,6.86,0,0,0,.29-1.5C407.32,368.06,407.54,364.82,407.76,361.59ZM259.06,218.72a18.36,18.36,0,0,0,.19,2.61,6.58,6.58,0,0,0,5.78,4.91,6,6,0,0,0,5.62-5,8.22,8.22,0,0,0-4.36-8.28,6.72,6.72,0,0,0-5.87,0c-1.66.85-1.07,2.66-1.28,4.1C259.1,217.4,259.11,217.71,259.06,218.72Zm-31.54,91.33c.69,1.42,1.33,2.86,2.06,4.25.89,1.69,1.84,3.35,2.8,5,1.25,2.17,2.45,4.37,3.83,6.45.83,1.25,2,2.28,2.92,3.44.68.82,1.37,1.65,2.52,1.11a2,2,0,0,0,.83-2.66,27.54,27.54,0,0,0-2-4c-1.35-2.37-3.18-4.56-4-7.08a34.23,34.23,0,0,0-3.61-7.93c-.79-1.21-1.56-2.12-3.12-1.84C228.42,307,227.89,308,227.52,310.05Zm24.42,73.89c-.88-.52-1.4-1.07-2-1.13a5.14,5.14,0,0,0-4.29,1.94c-3,3.25-6.25,6.4-7.66,10.82a12.13,12.13,0,0,1-1.12,2.14c-1.2,2.12-2.44,4.2-3.58,6.34-.52,1-1.1,2.35.21,2.92a3.75,3.75,0,0,0,3-.53A4.69,4.69,0,0,0,238.1,404c.32-1,.16-2.23.43-3.3a7.59,7.59,0,0,1,1.33-3.27c2.9-3.09,6.06-5.95,9-9A37.55,37.55,0,0,0,251.94,383.94ZM365.26,249.22c0,1,0,1.43,0,1.83.09,1,.18,2.13,1.46,2.35s1.84-.63,2.26-1.62c.19-.46.28-1,.46-1.44.65-1.69,1.3-3.38,2-5.06,1-2.44,2.08-4.83,2.93-7.32a2.78,2.78,0,0,0-.52-2.36c-.31-.33-1.65-.17-2.15.23a9.41,9.41,0,0,0-2.56,2.92,63.8,63.8,0,0,0-3,6.93A22.56,22.56,0,0,0,365.26,249.22Zm68.36,101.59c2.14-.3,4-.59,4.65-2.46.92-2.72,2.86-4.6,4.67-6.64a19,19,0,0,0,2.4-3.49c.61-1.12,1.47-2.39.22-3.61-.82-.79-2-.21-3.46,1.57-2.48,3.07-4.94,6.15-7.44,9.19a25.78,25.78,0,0,0-2.24,2.46,2.78,2.78,0,0,0-.22,2.2C432.37,350.49,433.31,350.66,433.62,350.81Zm-192.88,3.08c1.14-.63,2.85-1.06,2.94-1.72.24-1.61-1.49-1.47-2.6-1.78a1,1,0,0,0-.3,0,6.24,6.24,0,0,1-4.22-2.07,7.18,7.18,0,0,0-3.18-1.58,9.2,9.2,0,0,1-4.32-2,2.81,2.81,0,0,0-4.05.21,2.52,2.52,0,0,0,1.07,3.63,16.61,16.61,0,0,0,5.07,1.72,12.29,12.29,0,0,1,4.46,1.65A27.54,27.54,0,0,0,240.74,353.89ZM424.52,324.7h.23c-.18-2.93-.28-5.87-.57-8.78a3.28,3.28,0,0,0-2.17-3.06c-1.45-.47-2.45.27-2.28,1.78q.91,8,1.94,16a8.92,8.92,0,0,0,.66,2.32,1,1,0,0,0,1.84-.09,7.3,7.3,0,0,0,.34-2.08C424.55,328.75,424.52,326.73,424.52,324.7Zm36.25,35.67c-2.75-.11-5.46,1.35-7.64,3.82-1.29,1.46-.77,2.78,1.16,2.9a9.49,9.49,0,0,0,3.59-.45c1.62-.54,3.13-1.42,4.71-2.09,1.16-.49,2.46-1,2.26-2.47-.23-1.76-1.86-1.53-3.13-1.71Zm-9.93,34.81a42.14,42.14,0,0,0-2.63-5.79,1.75,1.75,0,0,0-3.28.43,8.12,8.12,0,0,0,1.29,6.92,2.18,2.18,0,0,0,3,.71C449.85,397.05,450.18,396.12,450.84,395.18Zm-195-34.75,2.14-1.52c-.46-.59-.81-1.38-1.41-1.72a49.22,49.22,0,0,0-5.39-2.69,17.24,17.24,0,0,0-4.31-1.23,2.13,2.13,0,0,0-1.75,1.19c-.13.51.5,1.45,1,1.84a4.86,4.86,0,0,0,2.29.66,7.18,7.18,0,0,1,4.07,1.75A16.47,16.47,0,0,0,255.8,360.43Zm33.62,118.28a11.17,11.17,0,0,0-2.17.56,1.46,1.46,0,0,0-.8,2.24,7.48,7.48,0,0,0,5.2,3.83c1.52.23,2.3-.47,2.47-2C294.44,480.53,292.78,478.71,289.42,478.71ZM203.32,341l.07-.24c.3,0,.61,0,.91,0,1.19,0,2.27-.26,2.46-1.68a1.92,1.92,0,0,0-1.86-2.3,38.52,38.52,0,0,0-6,0,1.9,1.9,0,0,0-1.33,1.29,2.09,2.09,0,0,0,1.16,1.5C200.22,340.14,201.79,340.5,203.32,341Zm226.11,13.24c-1.86,0-4.95,3.5-4.67,5.35a1.22,1.22,0,0,0,2,.88,25.34,25.34,0,0,0,3.76-4.31A1.23,1.23,0,0,0,429.43,354.19Zm22.86,58.59c0-2.22-.72-3.73-1.73-3.86s-2,1.31-2.07,3.51a2.7,2.7,0,0,0,.18,1.47c.36.52,1,1.17,1.5,1.21a2.47,2.47,0,0,0,1.69-.95A3.09,3.09,0,0,0,452.29,412.78Zm-79.47-53.62c-.64-.61-1-1.19-1.27-1.16a6.46,6.46,0,0,0-1.78.64c.3.42.57,1.15.9,1.18A6.47,6.47,0,0,0,372.82,359.16Zm84.56-35.86-.12-.22c-.12.07-.26.14-.37.22a1.08,1.08,0,0,0,.11.21Z" transform="translate(-58.55 -52.7)"/><path d="M437.64,105.07a27.84,27.84,0,0,0-4.57.05,21.34,21.34,0,0,0-4.23,1.5c-.64.27-1.16.84-1.8,1.12-1.2.51-2.63.71-3,2.27a6.48,6.48,0,0,0,.51,5.32c3.08,4.52,6.18,9,9.55,13.35,1.13,1.45,3,2.29,4.64,3.36a74,74,0,0,0,7.9,5.13c4.36,2.19,5.89,6,6.57,10.33a29.37,29.37,0,0,1,.05,6.36c-.41,5.87-.95,11.74-1.37,17.62a10.27,10.27,0,0,0,2,7.18,8.83,8.83,0,0,1,1.69,6c-.16,2.34-1.28,3.39-3.57,3a9.78,9.78,0,0,1-3.59-1.54,51.7,51.7,0,0,1-4.2-3.51c-1.46-1.26-2.74-2.9-4.42-3.71-7.76-3.73-13.95-9.75-21.19-14.21a25.3,25.3,0,0,1-2.3-1.51c-1.86-1.47-1.92-3.26-.21-4.9l.23-.2c5.92-3.66,7-9.66,7.52-15.85a28.24,28.24,0,0,0-1.63-12.9,21.78,21.78,0,0,0-1.42-3c-1.07-1.83-2.32-3.56-3.34-5.42-.82-1.47-1.87-2.4-3.61-2.3a3.33,3.33,0,0,0-3.21,2.79,12,12,0,0,1-3,5.86,5.94,5.94,0,0,0-1,2.2c-.71,2.12-1.29,4.29-2.11,6.36a4.69,4.69,0,0,0,.45,4.88c1.31,1.79,2.55,3.63,3.83,5.44a7.91,7.91,0,0,1,1,6.14c-.09.57-.79,1.15-1.35,1.51a7.85,7.85,0,0,1-5.85,1.08c-2.21-.39-4.45-.59-6.61-1.15a20.39,20.39,0,0,1-5.3-2.14c-4-2.42-8-4.63-12.74-5.6-3.3-.69-6.35-2.62-9.54-3.91-2.15-.86-4.35-1.58-6.53-2.37a18,18,0,0,1-3.93-1.49c-2.1-1.4-2-3.6.17-4.88a30.34,30.34,0,0,1,5.23-2.44,13,13,0,0,0,8.1-7.66c2.18-5.11,5-9.93,7.54-14.91,1.22-2.44,2.27-5,3.43-7.44a5.88,5.88,0,0,1,1-1.54c2.34-2.44,3.12-5.56,4.26-8.62a70.24,70.24,0,0,0,3.66-12.53c.39-2.24.1-4-1.88-5.33a7.86,7.86,0,0,1-1.32-1.26c-1.83-2-2.29-4.43-1.19-6.11.84-1.28,3.93-2.27,5.85-1.68a49.62,49.62,0,0,1,4.82,1.89c1.68.71,3.34,1.44,5,2.2,1.45.68,2.89,1.41,4.32,2.15.63.32,1.19.94,1.84,1,4.07.62,6.65,3.68,9.84,5.77,2.53,1.65,5.37,2.83,8,4.25q4.85,2.58,9.66,5.2a6.18,6.18,0,0,1,1,.71c2.5,2.05,2.92,4.27,1.05,6.81a3.28,3.28,0,0,1-2.35,1c-1.61,0-3.23-.36-4.85-.39a57.67,57.67,0,0,0-7,.19c-2.2.24-4.5,4.81-3.43,6.76a2.61,2.61,0,0,0,1.92,1.21c4.94-.1,9.92.22,14.53-2.39a18.3,18.3,0,0,1,10.28-2.24c1.92.12,3.85.2,5.78.26,5.61.18,10.25,2.08,13.37,7.06,1.13,1.79,2.73,3.28,4,5a7.13,7.13,0,0,1,1.67,3.17c.51,5.69.89,11.45-2.55,16.51a31.72,31.72,0,0,1-4.67,5.58,6.15,6.15,0,0,1-3.92,1.3,57.88,57.88,0,0,1-8.18-.85,5.48,5.48,0,0,1-2.34-1.26c-.94-.76-1.74-1.7-2.62-2.54-5.8-5.52-4.59-11.51-.68-16.63a21.44,21.44,0,0,0,2.4-3.49c.85-1.77.51-2.72-1-4a11,11,0,0,0-7.18-3c-1.32,0-2.64,0-4,0Z" transform="translate(-58.55 -52.7)"/><path d="M112,297c0,2.49-.09,4.73,0,7,.14,2.7,1.1,3.58,3.82,3.71a9.88,9.88,0,0,0,7.61-2.46c2.37-2.21,4.73-4.43,7.18-6.54a50.94,50.94,0,0,1,4.89-3.61c1.16-.77,2.68-1.07,3.68-.06a4.08,4.08,0,0,1,.75,3c-.26,2.11-1.07,4.15-1.28,6.26-.5,5-.73,9.92-1.18,14.88a82.35,82.35,0,0,1-1.1,8.43c-1.53,7.91-1,15.54,2.41,22.93a20.89,20.89,0,0,1,1.79,6.07c.34,2.61-.44,3.16-3,3.52-3.93.55-6.24-1.71-8.36-4.46-.92-1.21-1.87-2.4-2.78-3.62a6.5,6.5,0,0,0-5.87-2.58c-4.78.16-9.55.31-14.33.36-7.62.08-15.25.05-22.87.11a32.72,32.72,0,0,0-4.53.4,4.73,4.73,0,0,0-3.62,2.52,8.81,8.81,0,0,1-1.59,2.22,9.22,9.22,0,0,0-2.6,5.69A13.23,13.23,0,0,1,69.6,365c-.93,1.7-2.25,1.89-3.82.81a12.37,12.37,0,0,1-5-6.31,45.43,45.43,0,0,1-2.13-17.74c.16-2.64.32-5.28.32-7.92q0-20-.06-39.95c0-3.17,0-6.28,1.6-9.2a15.74,15.74,0,0,0,1-3.81,35.83,35.83,0,0,1,5.83-13,1.17,1.17,0,0,0,.17-.26c2.68-6.57,8.69-7.39,14.55-8.12s11,1.36,16.23,3.45a12.25,12.25,0,0,1,6.27,6,15.51,15.51,0,0,0,2.26,3.6,13.4,13.4,0,0,1,3.25,7.72C110.88,286,112.55,291.48,112,297ZM88.64,309.16l0,.24h7a7.35,7.35,0,0,0,4.75-1.76,3,3,0,0,0,1-4,6.26,6.26,0,0,0-4.54-3.66c-4.91-1.18-9.89-.91-14.85-.83a24.87,24.87,0,0,0-6.22,1.19,6.9,6.9,0,0,0-4.2,4.15,3.37,3.37,0,0,0,2.29,5,13.45,13.45,0,0,0,4.2.39C81.58,309.7,85.11,309.4,88.64,309.16Z" transform="translate(-58.55 -52.7)"/><path d="M507.62,316.32c-.21-5.18-.45-10.36-.63-15.54-.18-4.75-1.83-9.13-3.38-13.54-.27-.76-.69-1.48-.89-2.26-1.67-6.26-3.25-12.55-5-18.8-.48-1.75-1.37-3.39-1.91-5.13a24.28,24.28,0,0,1-1.19-5.28c-.15-2.41,1-3.27,3.44-3a2.14,2.14,0,0,1,.89.16c2.73,1.72,6.05,2.28,8.52,4.58a5.58,5.58,0,0,0,3.51,1.4,43.55,43.55,0,0,0,8.13-.92c3.57-.74,7.07-1.88,10.62-2.72a45.33,45.33,0,0,0,14-5.71,4.1,4.1,0,0,1,1.64-.77c2.93-.28,5-2.23,7.2-3.77,2-1.38,2.55-3.58,2.9-5.83a22.75,22.75,0,0,1,.9-4.46c.8-2.12,1.77-2.39,3.78-1.39a21.49,21.49,0,0,1,3.46,1.91,8.47,8.47,0,0,1,2.65,2.82c2.23,4.8,4.23,9.69,4.58,15.08a38,38,0,0,0,.68,4.21c.69,3.59,1.33,7.19,2.13,10.75s1.83,7.27,2.71,10.92c.84,3.45,1.79,6.88,2.37,10.37a114.59,114.59,0,0,1,1.58,13.3,215.35,215.35,0,0,1-.34,30.48c-.2,2.13-.48,4.25-.8,6.35-.43,2.8-1.08,3.36-4,3.55-1.11.07-2.23.05-3.35,0-4.88-.09-9.76-.15-14.64-.33a6.8,6.8,0,0,1-3.46-.85c-1.41-.94-3-2.28-2.49-4.2a5.51,5.51,0,0,1,3.81-4.05c5-1.3,7.61-5,10-9.17,1.79-3.13,1.79-6.63,2.26-10a9.54,9.54,0,0,1,1.8-5,7.68,7.68,0,0,0,1.34-4.25c.17-5.93-.27-11.78-2.75-17.32a4.61,4.61,0,0,0-2.39-2.59,19.39,19.39,0,0,0-9.44-2,15.85,15.85,0,0,0-5.09,1.74,3.48,3.48,0,0,0-1.94,3.25,35.6,35.6,0,0,0,.09,4.26c.31,3.75.82,7.49,1,11.24.19,4.2,2,7.13,5.86,8.83a7.93,7.93,0,0,1,1.36.7c1,.68,2.53,1.3,2.67,2.15a13.42,13.42,0,0,1-.44,5.36c-.13.56-1.42,1.07-2.23,1.16a17.45,17.45,0,0,1-3.95-.15,40.2,40.2,0,0,0-11.21.56,48.37,48.37,0,0,1-9.71.22c-.83,0-2.22-.84-2.36-1.5a26.69,26.69,0,0,1-.64-7.17c.07-1,1.32-2.28,2.35-2.91a16.31,16.31,0,0,0,7.73-14.52c-.08-1.22-.15-2.44-.3-3.65-.32-2.62-1.16-3.79-3.79-3.93a68.05,68.05,0,0,0-12.77.14c-4.44.61-9.28,5.54-7.86,11.11,1.1,4.33,1.94,8.73,3.24,13,.67,2.16,2.63,3.82,3,6.24.82,6.12,5,9.76,9.74,12.93,2.6,1.74,5.32,3.34,8,4.89a2.77,2.77,0,0,1,1.5,3.3c-.29,1.36-1.33,1.68-2.54,1.71-5.59.14-11.18.32-16.77.4-3.53.06-6.78-1.17-10-2.47a3.92,3.92,0,0,1-2.64-3.43c-.2-2.12-.41-4.25-.44-6.38-.06-4.67,0-9.34,0-14Z" transform="translate(-58.55 -52.7)"/><path d="M531.29,432.55c-2.12.18-4.25.29-6.36.57a3.27,3.27,0,0,0-2.12,1,64.93,64.93,0,0,0-4,7.12,4.76,4.76,0,0,0,1.52,6c3.49,2.41,7.05,4.75,10.74,6.84,2.84,1.61,4.46,1.3,6.33-1.32,3.36-4.69,6.66-9.47,7.92-15.29.41-1.88.86-3.76,1.41-5.61,1.84-6.13.49-11.89-2.21-17.39-1.28-2.61-2.41-5.15-2.12-8.11.21-2.19,1-2.92,3.16-2.71a14.84,14.84,0,0,1,3.83.9c4.73,1.83,9.4,3.8,14.13,5.65,2.61,1,3.57,2.19,3.56,5a9.8,9.8,0,0,1-.52,3.59c-1.51,3.65-3,7.31-4.88,10.8-1.94,3.66-4.17,7.18-6.43,10.65s-4.87,7-7.28,10.52a34.5,34.5,0,0,0-2.52,4.15c-3.89,7.94-8.49,15.48-13.12,23a22.61,22.61,0,0,1-1.47,1.95c-3.33,4.34-6.76,8.62-9.94,13.07a16.75,16.75,0,0,0-2.22,5.31c-.84,3.1-3.23,5.12-4.95,7.58-1.13,1.62-3.18.93-4.85.55-1.49-.34-1.71-1.64-1.77-2.88-.06-1.52,0-3,.06-4.56s.16-2.84.31-4.26c.46-4.39-1-7.82-3.91-11.3-6-7.09-13.1-12.68-20.71-17.77a7.19,7.19,0,0,1-1.45-1.1c-3-3.38-7-3.87-11.18-3.6-3.44.22-5.65,2.5-7.7,5-1.59,1.9-3.33,2.32-5.33,1.15a4.35,4.35,0,0,1-1.65-1.7c-1.43-2.83-.79-7.1,1.81-8.85,3.32-2.24,5.35-5.45,7.81-8.41a97.73,97.73,0,0,0,8.93-12.67c1.18-2,2.9-3.68,4-5.69,4.61-8.11,9.08-16.31,13.63-24.45,1.34-2.38,2.95-4.61,4.16-7.05,1.11-2.27,1.8-4.74,2.79-7.07.7-1.68,1.61-3.27,2.38-4.92,1.58-3.38,7.79-5,11.22-2.7,4.2,2.77,8.87,4.82,13,7.82a6.62,6.62,0,0,1,3.05,5.56c.19,5,.12,5.51-4.8,5.22-5.72-.33-10.88,1.63-15.89,3.63-4.57,1.82-8.9,4.56-11,9.55a3.11,3.11,0,0,1-.8,1.28c-1.13.83-2.41,1.51-2.22,3.22.23,2,.09,4.14.83,5.93a13.62,13.62,0,0,0,6.12,7c1.5.81,2.78,2,4.22,3a12,12,0,0,0,3.17,1.75c3.86,1.13,6-.25,6.85-4.16s1.08-7.76-.76-11.62a14.91,14.91,0,0,1-.93-5.95c-.05-2.34,1.27-3.25,3.61-2.79a5.21,5.21,0,0,1,2,.74c2.37,1.73,4.68,3.54,7,5.33,3.06,2.35,6.08,4.75,9.17,7.06,1.51,1.12,2.82,2.31,3.14,4.29s-.12,2.65-2.15,2.62c-1.52,0-3-.14-4.57-.22Z" transform="translate(-58.55 -52.7)"/><path d="M418.13,555.87a14.52,14.52,0,0,0-1.81-7.48c-1.87-3.71-3.44-7.57-5.16-11.36-.42-.92-.93-1.8-1.42-2.68a10.44,10.44,0,0,1-1.36-2.36c-.95-3.77-3.34-6.64-5.63-9.61a12.14,12.14,0,0,1-1.55-2.94c-1.77-4.53-4.59-7.54-9.88-7.66a7.32,7.32,0,0,1-4.07-1.77,3.94,3.94,0,0,1,.42-6.67c4.3-2.47,8.82-4.56,13.21-6.86,3-1.56,5.86-3.2,8.78-4.83a18,18,0,0,1,2-1.33c4.63-1.75,8-5.1,11.25-8.63,2.08-2.25,4.83-3.32,7.67-4.15a3.23,3.23,0,0,1,3.81,1.21,5.66,5.66,0,0,1,.89,5.48,10.5,10.5,0,0,1-1.89,3.11c-2.25,2.42-2.45,5.27-2,8.27a21.14,21.14,0,0,0,1,3.82c.93,2.65,2.37,3.66,5.1,3.18A12.08,12.08,0,0,0,442,500.8c5.67-3.74,11.13-7.82,16.93-11.32,2.53-1.53,5.67-2.13,8.6-2.83a7.83,7.83,0,0,1,6.41,1.24,8.39,8.39,0,0,0,2.47,1.18c7.24,2.09,10.13,7.46,11,14.39.15,1.11.48,2.2.53,3.31a28.47,28.47,0,0,1-.12,4.8c-.22,1.71-.82,3.36-1.09,5.06a30.12,30.12,0,0,1-7.06,15.28c-2.24,2.61-4.1,5.54-6.32,8.17a19.38,19.38,0,0,1-4,3.28c-2.68,1.82-5.53,3.41-8.18,5.27-1.65,1.15-3,2.8-4.63,3.93-2.75,1.87-5.66,3.51-8.51,5.24-.17.1-.4.11-.56.23-1.95,1.4-4.66-.31-6.66,2.12-1.42,1.73-4.11,2.53-6.36,3.45-4.09,1.68-7.51,4.33-10.91,7-1.82,1.46-3.81,2.7-5.76,4a6.94,6.94,0,0,1-1.67.73c-3.8,1.26-4.81.35-5-3.69-.18-3.71,1-6.65,4.09-8.55a5.52,5.52,0,0,0,2.82-5.31C418,557.32,418.08,556.81,418.13,555.87Zm26.49-43.66c-1,0-1.89-.07-2.8,0-2.67.23-3.52,1.42-3,4.1a6.8,6.8,0,0,0,.67,2c1.34,2.25,2.65,4.52,4.17,6.64,2.07,2.88,4.28,5.65,6.49,8.42a53.59,53.59,0,0,0,4.56,5.29c2,2,4.88,1.11,5.73-1.61a5.71,5.71,0,0,0,.28-2.09c-.23-3.06-.73-6.08-2.76-8.54a48.06,48.06,0,0,1-7.34-11.1C449.48,512.7,447.54,511.41,444.62,512.21Z" transform="translate(-58.55 -52.7)"/><path d="M290.11,526.69a24.77,24.77,0,0,0-4.14.5,9,9,0,0,0-4,1.92,26.76,26.76,0,0,0-5.52,7.19,35.85,35.85,0,0,1-3.78,5.88c-1,1.38-2.63,1.45-4.18,1.06a2.69,2.69,0,0,1-1.95-2.8,49.34,49.34,0,0,1,.19-5.16c.06-.81.44-1.6.45-2.39.09-5.65,2.08-10.94,3.06-16.42a14.91,14.91,0,0,1,.62-2.36c1.4-3.92,4.23-5.59,8.31-4.81a35.37,35.37,0,0,1,4.11,1.15c6.87,2.18,14,2.33,21.11,2.76,4.25.26,8.52.2,12.78.28.91,0,1.83.06,2.74.06,4.37,0,8.73.07,13.09-.06q11.9-.33,23.77-.89c2.42-.12,4.82-.61,7.23-.9s5-.68,7.55-.78a3.21,3.21,0,0,1,3.58,2.65c1.22,5.24,2.5,10.47,3.75,15.7a20.2,20.2,0,0,1-.41,9.37,3.47,3.47,0,0,1-4,2.87c-2.32-.16-4.12-.79-5.31-3.26-2.82-5.86-7.9-9.73-13.09-13.32-3-2.09-6.64-1.62-9.63.71a44.92,44.92,0,0,0-4.7,3.84,5.52,5.52,0,0,0-1.44,3.17c-.33,3.84-.54,7.71-.53,11.57,0,8.44.27,16.87.35,25.31,0,2.5.45,4.67,3,5.76a.6.6,0,0,1,.23.19c3.48,4.61,8.81,5.52,13.88,6.94a1.63,1.63,0,0,1,.3.07c1.18.44,2.85.26,3.23,1.86a3.9,3.9,0,0,1-1.78,4.26c-2.79,1.53-5.4,3.81-8.86,3.66a13.06,13.06,0,0,1-4.39-.89,10.63,10.63,0,0,0-8-.41c-3.58,1.4-6.95.7-10.48.17a61.44,61.44,0,0,0-9.67-.8c-1.85,0-3.69.88-5.54,1.34a12.49,12.49,0,0,1-2.66.56c-4.67.11-9.35.2-14,.16a36.17,36.17,0,0,1-6.06-.59c-3.14-.57-4.19-1.77-4.16-4.31,0-3.11,1.33-4.57,4.58-5,1.3-.18,2.63-.21,3.95-.26a5.28,5.28,0,0,0,4.94-3.43,42.71,42.71,0,0,0,3.78-13.4c1.11-10.26-.48-20.27-2.09-30.3a13,13,0,0,0-1.19-3.44C297.19,527.79,295.11,526.56,290.11,526.69Z" transform="translate(-58.55 -52.7)"/><path d="M315,136.47c-3.05-.14-6.12-.1-9.13-.47a79.32,79.32,0,0,1-8.62-1.76c-2-.47-3.88-1.25-5.85-1.71a13.67,13.67,0,0,1-6.93-4.21c-1.25-1.32-2.55-2.6-3.75-4a17.49,17.49,0,0,1-2.37-3.14c-2.09-3.84-4.73-7.1-8.78-9a5.13,5.13,0,0,1-3-4.22,61.11,61.11,0,0,1,.77-23,17.94,17.94,0,0,1,1.3-3.39A28.69,28.69,0,0,0,270,78.86c1.62-5.08,5-9,8.27-13a12.26,12.26,0,0,1,3.18-2.31c4.22-2.62,8.44-5.25,12.73-7.76a13,13,0,0,1,3.7-1.24,30.44,30.44,0,0,1,4.82-.78c7.18-.43,14.4-1.25,21.57-1,3.91.15,7.76,2.17,11.62,3.4,1.35.43,2.63,1.09,4,1.5,5.67,1.71,9.12,5.69,11.43,10.94,2.48,5.65,1.28,11.18-.65,16.58a8.43,8.43,0,0,1-7.25,5.39,47.41,47.41,0,0,1-11.54.08c-2.51-.33-4.92-1.84-7.22-3.11a5,5,0,0,1-1.75-2.73,11.65,11.65,0,0,1,.85-9.16c1.43-2.9,2.7-5.89,3.93-8.9.73-1.81.26-2.81-1.61-3.65-3-1.34-5.75-.7-8.36,1-1.51,1-3,2-4.51,3.08a4,4,0,0,0-1.3,1.23c-1.92,3.58-3.82,7.17-5.61,10.81a9,9,0,0,0-.76,3.25c-.43,7.2-.58,14.42-1.23,21.6-.6,6.62,2.71,11,7.49,14.71,1.6,1.25,3.26,2.43,4.94,3.57a18.13,18.13,0,0,0,3.2,1.76c3.65,1.48,6.72.64,9.36-2.28,1.83-2,3.92-3.86,5.64-6s3.09-4.5,4.65-6.74c.75-1.06,1.59-2.07,2.41-3.09a31.78,31.78,0,0,0,2.84-3.55A14.09,14.09,0,0,1,349,98.24c3.68-2.61,7.43-2.15,11.29-.74.67.24,1.26.67,1.91,1a3.5,3.5,0,0,1,2.16,3.39,21.33,21.33,0,0,1-1.26,7.75c-2.33,6.54-7.42,10.83-12.19,15.36-1.35,1.28-2.73,2.18-3.53,4.11a6.94,6.94,0,0,1-4.82,3.9,24.84,24.84,0,0,1-3.58.77,77.57,77.57,0,0,0-11,2.44c-2.69.68-5.64.39-8.47.49-1.52,0-3.05,0-4.57,0Z" transform="translate(-58.55 -52.7)"/><path d="M528.65,231.56c0,2.75-2.13,4.29-4.73,5.64-3.17,1.64-6.26,3.34-10,3.42a3.13,3.13,0,0,0-1.7.6c-2.23,1.64-4.88,1.91-7.45,2.48a11.39,11.39,0,0,1-8.55-1.07,9.54,9.54,0,0,0-2.79-1.2c-4.84-1-8.31-3.94-11.33-7.69-3.33-4.12-6.53-8.25-8.73-13.14a24.38,24.38,0,0,0-4.68-6.72,15.65,15.65,0,0,1-4.09-8.67c-.83-5.3-1.13-10.69-1.43-16.06a12.69,12.69,0,0,1,3-8.73c4.07-5.13,8.53-9.88,14.13-13.29,4.49-2.74,9.21-5.16,14.59-5.83a36.25,36.25,0,0,0,5.1-.89c6.35-1.8,12.47-.85,18.54,1.26a4,4,0,0,0,.87.27c2.91.25,4.6,1.93,6,4.41,1.09,1.87,3,3.32,4.55,4.86a34.71,34.71,0,0,1,8.61,14.17,27.68,27.68,0,0,0,1.47,3.66,29.35,29.35,0,0,1,3.16,12.29c.32,6.82-.32,13.47-4,19.38A65.46,65.46,0,0,1,533,228.9C532,230,530.48,230.46,528.65,231.56Zm-40.21-16.84A23.58,23.58,0,0,0,492.9,213c3.07-1.95,6-4.13,9-6.26,2.79-2,5.42-4.3,8.34-6.09,3.53-2.16,6.22-5.17,9.06-8a7.33,7.33,0,0,0,1.46-2.29c1.08-2.53-.57-4.94-3.26-4.6a9,9,0,0,0-4.15,1.58c-2.24,1.72-4.15,3.88-6.34,5.67a17.44,17.44,0,0,1-4.13,2.37c-3,1.26-6,2.35-9,3.52a1.86,1.86,0,0,0-.51.33c-3.5,3-6.74,6.11-8,10.83C484.6,213.12,485.18,214.2,488.44,214.72Z" transform="translate(-58.55 -52.7)"/><path d="M198,171.48c-1.11,0-2.23,0-3.35,0-3,.08-5.61-.52-7.57-3.09a9.49,9.49,0,0,0-3-2.52c-2.86-1.51-4.84-4-7-6.19-3.56-3.64-4.6-8.5-6.26-13.06-.79-2.18-1.46-4.42-2.37-6.55a13.85,13.85,0,0,1-1-8.35c1-5,2-10,3.45-14.83a29.47,29.47,0,0,1,7.64-12.67c3.94-3.81,8.05-7.47,12.31-10.9,2.27-1.83,5-3,7.58-4.51,3.51-2,6.89-4.33,10.58-5.94,4.16-1.81,8.47-3.47,13.14-3.51,4.18,0,7.54,2.2,10.92,4.24a11.56,11.56,0,0,1,5.95,11.51,89.07,89.07,0,0,1-1.29,9.63,11.62,11.62,0,0,1-1.79,3.43c-.41.7-1.16,1.25-1.38,2-.74,2.52-2.62,3.45-4.92,4-5,1.13-9.82.86-14.45-1.76-3.47-2-4.75-4.9-4.58-8.6a41.33,41.33,0,0,1,1-5.7,17.4,17.4,0,0,0,.59-2c0-1.05.25-2.39-.28-3.12-.81-1.12-2.3-.68-3.36-.08-3.51,2-7.09,3.72-9.47,7.36a9.7,9.7,0,0,0-1.19,9.2,38.89,38.89,0,0,1,2,7.28c.72,4.84,2.2,9.2,5.45,13,2.64,3.08,4.7,6.64,7.33,9.72a35.19,35.19,0,0,0,6.91,6.34c5,3.33,10.52,3.43,16,1.3a9.62,9.62,0,0,0,3.22-2.64c4.58-5.09,4.87-11.23,3.87-17.52a24.28,24.28,0,0,1,1.18-11.7c1.77-5.28,3.45-5.52,8.47-5.41,1.82,0,2.89,1,3.54,2.79a31.92,31.92,0,0,1,1,20,27,27,0,0,0-.72,4.21,19.62,19.62,0,0,1-3.6,9.25c-4.7,6.73-10.5,12.06-18.24,15.1-.65.25-1.21.74-1.84,1a15.53,15.53,0,0,1-3.58,1.42,17.53,17.53,0,0,0-5.33,2c-5,2.69-9.82,6-16.09,5.4-3.09-.31-6.27.37-9.41.6Z" transform="translate(-58.55 -52.7)"/><path d="M147.45,213.26c2.45.62,5,1.08,7.34,1.88,6.19,2.06,8.86-.17,7.65-6.56-.21-1.09-.59-2.15-.89-3.22-.6-2.14-1.22-4.28-1.76-6.44-.25-1-.27-2-.5-3-.35-1.59-1.16-2.92-2.91-3.12s-3.45.06-4.59,1.72-2.5,3.45-3.65,5.24a4.31,4.31,0,0,1-3.42,2.23c-3.59.29-5.72,2.52-7,5.57a14.05,14.05,0,0,1-4.18,5.51,10.67,10.67,0,0,0-2.8,3.13c-1.34,2.63-3.48,4.49-5.56,6.4a13.28,13.28,0,0,1-6.51,3.14c-2.48.5-4.9,1.27-7.37,1.86a36.36,36.36,0,0,1-3.59.61c-3,.41-6,.82-9.07,1.17-4,.46-6.72,2.71-8.85,5.85-1.71,2.5-3.26,5.11-4.86,7.67a3.56,3.56,0,0,1-3.42,1.59c-1.36,0-1.8-1.09-2.23-2.17-1.64-4.1-2.28-8.14-.32-12.4,1.31-2.85,2.06-5.95,3.29-8.85,2-4.65,4.15-9.21,6.19-13.84a39.16,39.16,0,0,0,1.31-3.73c1.08-3.28,2.13-6.57,3.21-9.85a3.48,3.48,0,0,1,.58-1.4c3.12-3,3.55-7.47,6.19-10.71,1.08-1.33,1.76-3,2.73-4.39a4.26,4.26,0,0,1,4.71-2,4,4,0,0,1,3.49,3.68c.54,3.22,2.59,4.88,5.54,5.81,4,1.25,7.88,2.7,11.86,3.91,3.81,1.15,7.66.64,11.46-.21,2.47-.56,4.92-1.25,7.36-1.94,4.86-1.36,6.66-5.79,3.4-9.55-4.21-4.87-7.56-10.48-13.24-14.14-3-1.93-5.65-2.68-8.78-1.49a8.37,8.37,0,0,1-5.07.06,2.7,2.7,0,0,1-1.71-1.43c-1.1-3.21-1.29-6.28,1.26-9.11,4.4-4.9,8.48-10.08,13.72-14.2,2.12-1.67,3.48-4.26,6.19-5.28.28-.11.53-.29.81-.43,2-.94,4.17-2,6-.2s1.59,4.37.59,6.31c-2.59,5.05-1.55,10.09-.61,15.18.5,2.7,1.18,5.36,1.64,8.06a16.76,16.76,0,0,0,2.5,5.79c2.56,4.23,4.8,8.66,7.08,13.06s4.58,8.58,6.49,13A23.67,23.67,0,0,1,169,200c.41,7.7,1,15.45-1,23.06-2.06,7.88-6,14.34-13.37,18.41a48.47,48.47,0,0,0-5,3.52,4.93,4.93,0,0,1-4.89.76c-2.17-.8-4.66-1.09-6.52-2.34-6.48-4.36-8.42-15.43-4-21.82a40.6,40.6,0,0,1,4.17-4.82C140.89,214.26,144,213.42,147.45,213.26Z" transform="translate(-58.55 -52.7)"/><path d="M214.91,565.38a46,46,0,0,1-18.46-3.4,101,101,0,0,1-11-5.74c-4.55-2.55-7.51-6.51-10.83-10.13-2.2-2.39-3.46-5.65-5.13-8.53-.25-.43-.31-1-.64-1.37-2.2-2.38-2.8-5.5-4.1-8.31-2-4.32-2-8.67-1.53-13a33.47,33.47,0,0,1,2.59-10.31c2.63-5.65,5.3-11.32,10.56-15.36,3.49-2.68,6.82-5.44,11-7a2.29,2.29,0,0,0,.78-.47c4.1-4.18,9.29-3.37,14.34-3.12,2.13.11,4.24.45,6.36.61a16.67,16.67,0,0,1,7.49,2.24c2.86,1.69,6.08,2.79,9.11,4.2,2.21,1,4.34,2.21,6.56,3.22,4.26,1.94,7.55,5.18,10.67,8.47a17.65,17.65,0,0,1,3.81,6.85c1.05,3.46,1.4,7.14,2,10.73a.76.76,0,0,1,0,.3c-1.44,6-2.9,12-8.27,16a9.07,9.07,0,0,1-9.52,1.05,39.08,39.08,0,0,1-10.49-6.11,7,7,0,0,1-2.87-4.82,61.79,61.79,0,0,1-.18-6.38,5.26,5.26,0,0,1,2.64-4.57c2.09-1.22,4.27-2.29,6.45-3.34,1.09-.53,2.32-.78,3.4-1.34a3.7,3.7,0,0,0,1.43-5.45c-2.11-3.26-4.74-5.25-9-4.9a16.54,16.54,0,0,0-11.89,5.9,4.84,4.84,0,0,1-1.3,1.26,4.16,4.16,0,0,0-2.46,3.23,9.33,9.33,0,0,1-1.13,2.13c-.62,1.25-1.15,2.54-1.81,3.76-1.46,2.66-3,5.3-4.47,7.93-.85,1.49-1.75,3-2.62,4.43-.41.69-.76,1.43-1.21,2.1-1.53,2.26-3.17,4.45-4.61,6.77a10.49,10.49,0,0,0,.66,11.17c.74,1,1.23,2.09,1.91,3.09a37.32,37.32,0,0,0,3.41,4.63,11.61,11.61,0,0,0,11.1,3.57,74.12,74.12,0,0,0,7.47-1.46,20.24,20.24,0,0,0,5.18-2.48c2.45-1.59,4.68-3.53,7.11-5.15A16.82,16.82,0,0,1,240,543.7c4.12.7,5,2,5.15,6.16.15,4.95-3.6,9.95-8,11-4.13,1.05-8.11,2.76-12.27,3.65C221.66,565.25,218.25,565.14,214.91,565.38Z" transform="translate(-58.55 -52.7)"/><path d="M100,455.82c-1-8.47,8.33-16.38,16.87-16.44,5.81,0,9.94,2.11,12.38,7.46.93,2,2.15,3.9,3.17,5.89a7.15,7.15,0,0,1-.09,7.53,2.21,2.21,0,0,0-.33.51c-1.4,5.58-6.1,6.32-10.65,7.28-.5.1-1,.16-1.5.26-2.72.59-3.22,1.16-3.19,3.57,0,2.57.7,3.53,3.27,3.94,3,.48,6,.76,9.06,1.05a2.61,2.61,0,0,0,2.62-1.74c1.7-3.47,3.74-6.82,5-10.45,2.18-6.37,3-12.8-.67-19.14a50.39,50.39,0,0,0-7.48-10.66,8.83,8.83,0,0,1,0-12.19c3.81-4,6.34-8.57,8.65-13.46,1.29-2.74,2.28-5.4,2.09-8.45-.08-1.21.1-2.46-.09-3.65-.48-3.17,1.23-5.21,3.45-7s4.66-1.51,6.19,1a17.06,17.06,0,0,1,1.86,4.45c.66,2.45,1.07,5,2.66,7.08a2,2,0,0,1,.37.83c1,5.51,4.47,9.93,6.82,14.84,1.53,3.19,3.06,6.38,4.63,9.55a5.63,5.63,0,0,0,1.34,2c2.52,2,2.74,4.84,3,7.68.15,1.74-.22,2.46-1.93,2.34-3.93-.26-6.15,2-8.24,4.79s-4.34,5.37-6.47,8.08a7.37,7.37,0,0,0-1.34,2.35c-1.2,4-2.22,8-3.47,12-.42,1.31-1.45,2.41-2,3.7a4.2,4.2,0,0,0-.47,2.77c.47,1.21,1.86,1.16,2.94.79,5.18-1.77,10.67-2.82,15.41-5.61s9.8-9.75,7.57-16.18a13.84,13.84,0,0,1-.56-4.81,3.23,3.23,0,0,1,1.26-2.22c1.77-1.23,6.14-.64,7.7.89a6.7,6.7,0,0,1,1.53,1.88c2,4.49,5.89,7.45,9.11,10.95,2,2.17,4,4.32,5.92,6.56,1.57,1.83,1.9,4,1,5.29a4.82,4.82,0,0,1-6,1.56A22.23,22.23,0,0,0,180,471.16a3.62,3.62,0,0,0-2.51,1.25c-1.07,1.76-2.67,2.16-4.41,2.23a12.77,12.77,0,0,0-6.61,2,11.88,11.88,0,0,1-3.41,1.24c-3.92,1.06-7.84,2.13-11.8,3.06-2.86.68-5.78,1.12-8.66,1.71-4.28.87-8.56,1.75-12.83,2.69a19.71,19.71,0,0,1-10.83-.53,50.5,50.5,0,0,1-8.15-4.09c-3.24-1.86-6-4.2-6.82-8.14a1.46,1.46,0,0,0-.26-.55C100.25,467.26,100.33,461.7,100,455.82Z" transform="translate(-58.55 -52.7)"/><path d="M106.86,409.34c-2.64.09-5.42.35-7.4-1.87-3.14-3.49-5.73-7.34-6.77-12a3.31,3.31,0,0,1-.09-1.21,34.77,34.77,0,0,1,5.59-14.33,7.81,7.81,0,0,1,7-3,68.87,68.87,0,0,1,9.05,1.25,7.66,7.66,0,0,1,5.82,5.23,27.28,27.28,0,0,1,1,14.1,9.65,9.65,0,0,1-1.24,3.41,53.67,53.67,0,0,1-4.22,5.94,7,7,0,0,1-5.07,2.48C109.3,409.4,108.08,409.34,106.86,409.34Z" transform="translate(-58.55 -52.7)"/><path d="M532.93,380.28c.07-1.11.15-2.23.2-3.34.28-6.64,4-11.09,9.33-14.42,3.24-2,7.65-1.42,10.76,1A18.15,18.15,0,0,1,560.44,374c1.16,5.06.69,9.86-2.51,14.18a15.71,15.71,0,0,0-1.55,3,6.35,6.35,0,0,1-6.18,4.1c-1.73,0-3.45,0-5.17-.11a6.89,6.89,0,0,1-5.12-2.32,8.4,8.4,0,0,0-1.82-1.6C534,388.68,532.59,384.9,532.93,380.28Z" transform="translate(-58.55 -52.7)"/></svg>